<svg xmlns="http://www.w3.org/2000/svg" viewBox="0 0 400 500">
  <!-- Background -->
  <rect width="400" height="500" fill="#ffffff"/>
  
  <!-- Basic Stick Figure with curved lines -->
  <g id="character">
    <!-- Head -->
    <circle cx="200" cy="100" r="50" fill="none" stroke="#000000" stroke-width="3"/>
    
    <!-- Silver hair in a bun -->
    <path d="M200 50 C210 40, 220 45, 225 50" stroke="#000000" stroke-width="3" fill="none"/>
    <path d="M175 60 C190 45, 210 45, 225 60" stroke="#000000" stroke-width="3" fill="none"/>
    <!-- Bun on top -->
    <circle cx="200" cy="45" r="12" fill="none" stroke="#000000" stroke-width="3"/>
    
    <!-- Eyes with curved eyebrows -->
    <circle cx="180" cy="90" r="7" fill="#000000"/>
    <circle cx="220" cy="90" r="7" fill="#000000"/>
    <path d="M170 75 C175 70, 185 70, 190 75" stroke="#000000" stroke-width="2" fill="none"/>
    <path d="M210 75 C215 70, 225 70, 230 75" stroke="#000000" stroke-width="2" fill="none"/>
    
    <!-- Gentle smile -->
    <path d="M175 120 C190 130, 210 130, 225 120" stroke="#000000" stroke-width="3" fill="none"/>
    
    <!-- Reading glasses -->
    <path d="M170 90 C175 85, 185 85, 190 90" stroke="#000000" stroke-width="2" fill="none"/>
    <path d="M210 90 C215 85, 225 85, 230 90" stroke="#000000" stroke-width="2" fill="none"/>
    <line x1="190" y1="88" x2="210" y2="88" stroke="#000000" stroke-width="2"/>
    
    <!-- Neck -->
    <line x1="200" y1="150" x2="200" y2="170" stroke="#000000" stroke-width="3"/>
    
    <!-- Body - represented by a dress/skirt outline -->
    <path d="M160 180 C180 170, 220 170, 240 180" stroke="#000000" stroke-width="3" fill="none"/>
    <path d="M160 180 C150 220, 150 280, 180 320" stroke="#000000" stroke-width="3" fill="none"/>
    <path d="M240 180 C250 220, 250 280, 220 320" stroke="#000000" stroke-width="3" fill="none"/>
    <path d="M180 320 C190 330, 210 330, 220 320" stroke="#000000" stroke-width="3" fill="none"/>
    
    <!-- Arms - curved -->
    <path d="M160 180 C130 190, 100 210, 90 220" stroke="#000000" stroke-width="3" fill="none"/>
    <path d="M240 180 C270 190, 300 210, 310 220" stroke="#000000" stroke-width="3" fill="none"/>
    
    <!-- Hands - circular -->
    <circle cx="90" cy="220" r="12" fill="none" stroke="#000000" stroke-width="3"/>
    <circle cx="310" cy="220" r="12" fill="none" stroke="#000000" stroke-width="3"/>
    
    <!-- Legs - curved -->
    <path d="M180 320 C170 370, 160 420, 155 450" stroke="#000000" stroke-width="3" fill="none"/>
    <path d="M220 320 C230 370, 240 420, 245 450" stroke="#000000" stroke-width="3" fill="none"/>
    
    <!-- Feet - circular -->
    <circle cx="155" cy="450" r="12" fill="none" stroke="#000000" stroke-width="3"/>
    <circle cx="245" cy="450" r="12" fill="none" stroke="#000000" stroke-width="3"/>
    
    <!-- Small pearl necklace -->
    <circle cx="190" cy="165" r="3" fill="none" stroke="#000000" stroke-width="1.5"/>
    <circle cx="200" cy="167" r="3" fill="none" stroke="#000000" stroke-width="1.5"/>
    <circle cx="210" cy="165" r="3" fill="none" stroke="#000000" stroke-width="1.5"/>
    
    <!-- Pot with plant in one hand -->
    <path d="M70 220 C65 210, 115 210, 110 220" stroke="#000000" stroke-width="2" fill="none"/>
    <path d="M70 220 C70 230, 110 230, 110 220" stroke="#000000" stroke-width="2" fill="none"/>
    <path d="M90 210 C85 195, 95 195, 90 180" stroke="#000000" stroke-width="2" fill="none"/>
    <path d="M90 210 C95 195, 85 195, 95 180" stroke="#000000" stroke-width="2" fill="none"/>
    
    <!-- Recipe book in other hand -->
    <path d="M290 215 L330 215 L330 235 L290 235 Z" stroke="#000000" stroke-width="2" fill="none"/>
    <path d="M310 215 L310 235" stroke="#000000" stroke-width="1.5" fill="none"/>
    <path d="M295 222 L305 222" stroke="#000000" stroke-width="1" fill="none"/>
    <path d="M295 227 L305 227" stroke="#000000" stroke-width="1" fill="none"/>
    <path d="M315 222 L325 222" stroke="#000000" stroke-width="1" fill="none"/>
    <path d="M315 227 L325 227" stroke="#000000" stroke-width="1" fill="none"/>
  </g>
</svg>
