<svg xmlns="http://www.w3.org/2000/svg" viewBox="0 0 400 500">
  <!-- Background -->
  <rect width="400" height="500" fill="#f5f5f5"/>
  
  <!-- Character Base - Exaggerated proportions -->
  <g id="character">
    <!-- Dress - Yellow with white polka dots -->
    <path d="M200 250 L260 390 L140 390 Z" fill="#ffeb3b"/>
    <ellipse cx="200" cy="250" rx="55" ry="30" fill="#ffeb3b"/>
    
    <!-- White polka dots on dress -->
    <circle cx="170" cy="260" r="8" fill="white"/>
    <circle cx="210" cy="270" r="8" fill="white"/>
    <circle cx="180" cy="300" r="8" fill="white"/>
    <circle cx="230" cy="310" r="8" fill="white"/>
    <circle cx="165" cy="330" r="8" fill="white"/>
    <circle cx="200" cy="350" r="8" fill="white"/>
    <circle cx="235" cy="370" r="8" fill="white"/>
    <circle cx="185" cy="380" r="8" fill="white"/>
    
    <!-- Body - Very thin limbs compared to oversized head -->
    <path d="M190 250 L185 280 L190 310 L185 330 L190 350" fill="#ffdddd"/>
    <path d="M210 250 L215 280 L210 310 L215 330 L210 350" fill="#ffdddd"/>
    
    <!-- Arms - Thin, noodle-like arms -->
    <path d="M190 260 L170 280 L160 310 L155 330" stroke="#ffdddd" stroke-width="8" fill="none" stroke-linejoin="round"/>
    <path d="M210 260 L230 280 L240 310 L245 330" stroke="#ffdddd" stroke-width="8" fill="none" stroke-linejoin="round"/>
    
    <!-- Hands -->
    <circle cx="155" cy="330" r="6" fill="#ffdddd"/>
    <circle cx="245" cy="330" r="6" fill="#ffdddd"/>
    
    <!-- Legs - Short, thin legs -->
    <path d="M185 390 L182 415 L180 435" stroke="#ffdddd" stroke-width="8" fill="none" stroke-linejoin="round"/>
    <path d="M215 390 L218 415 L220 435" stroke="#ffdddd" stroke-width="8" fill="none" stroke-linejoin="round"/>
    
    <!-- Shoes -->
    <ellipse cx="178" cy="440" rx="10" ry="5" fill="#000000"/>
    <ellipse cx="222" cy="440" rx="10" ry="5" fill="#000000"/>
    
    <!-- Massively oversized head -->
    <circle cx="200" cy="170" r="70" fill="#ffdddd"/>
    
    <!-- Hair - Betty Boop style with spit curls -->
    <path d="M165 130 C140 120, 160 90, 200 90 C240 90, 260 120, 235 130" fill="#000000"/>
    <path d="M140 150 C120 130, 140 80, 200 80 C260 80, 280 130, 260 150" fill="#000000"/>
    
    <!-- Distinctive spit curls -->
    <path d="M170 115 C165 110, 168 105, 172 107 C175 109, 177 115, 170 115" fill="#000000"/>
    <path d="M230 115 C235 110, 232 105, 228 107 C225 109, 223 115, 230 115" fill="#000000"/>
    <path d="M145 140 C140 135, 143 130, 147 132 C150 134, 152 140, 145 140" fill="#000000"/>
    <path d="M255 140 C260 135, 257 130, 253 132 C250 134, 248 140, 255 140" fill="#000000"/>
    
    <!-- Side Hair Curls -->
    <circle cx="130" cy="165" r="15" fill="#000000"/>
    <circle cx="270" cy="165" r="15" fill="#000000"/>
    
    <!-- Exaggerated eye construction -->
    <!-- Perfect round eyes with white highlights -->
    <circle cx="175" cy="160" r="20" fill="#000000"/>
    <circle cx="225" cy="160" r="20" fill="#000000"/>
    
    <!-- White highlights in eyes -->
    <circle cx="168" cy="152" r="6" fill="#ffffff"/>
    <circle cx="218" cy="152" r="6" fill="#ffffff"/>
    
    <!-- Long, dramatic eyelashes -->
    <line x1="160" y1="145" x2="145" y2="135" stroke="#000000" stroke-width="2"/>
    <line x1="165" y1="140" x2="155" y2="125" stroke="#000000" stroke-width="2"/>
    <line x1="175" y1="138" x2="175" y2="120" stroke="#000000" stroke-width="2"/>
    <line x1="185" y1="140" x2="195" y2="125" stroke="#000000" stroke-width="2"/>
    
    <line x1="240" y1="145" x2="255" y2="135" stroke="#000000" stroke-width="2"/>
    <line x1="235" y1="140" x2="245" y2="125" stroke="#000000" stroke-width="2"/>
    <line x1="225" y1="138" x2="225" y2="120" stroke="#000000" stroke-width="2"/>
    <line x1="215" y1="140" x2="205" y2="125" stroke="#000000" stroke-width="2"/>
    
    <!-- Eyebrows - high arched -->
    <path d="M155 130 C165 120, 175 120, 185 130" stroke="#000000" stroke-width="2" fill="none"/>
    <path d="M215 130 C225 120, 235 120, 245 130" stroke="#000000" stroke-width="2" fill="none"/>
    
    <!-- Small button nose positioned high -->
    <circle cx="200" cy="180" r="5" fill="#ffcccc"/>
    
    <!-- Small mouth positioned low on face - cupid's bow style -->
    <path d="M185 205 C195 215, 205 215, 215 205" stroke="#ff0000" stroke-width="3" fill="none"/>
    <path d="M185 205 C195 212, 205 212, 215 205" fill="#ff0000"/>
    
    <!-- Cheeks -->
    <circle cx="170" cy="185" r="10" fill="#ffb6c1" opacity="0.5"/>
    <circle cx="230" cy="185" r="10" fill="#ffb6c1" opacity="0.5"/>
    
    <!-- Yellow Dress Details -->
    <path d="M160 250 C180 235, 220 235, 240 250" stroke="#ffe600" stroke-width="4" fill="none"/>
    <path d="M140 390 L260 390 L260 380 C210 395, 190 395, 140 380 Z" fill="#ffe600"/>
    
    <!-- Additional polka dots on dress trim -->
    <circle cx="170" cy="245" r="5" fill="white"/>
    <circle cx="200" cy="240" r="5" fill="white"/>
    <circle cx="230" cy="245" r="5" fill="white"/>
    <circle cx="160" cy="385" r="5" fill="white"/>
    <circle cx="190" cy="390" r="5" fill="white"/>
    <circle cx="220" cy="387" r="5" fill="white"/>
    <circle cx="240" cy="383" r="5" fill="white"/>
    
    <!-- Garter/Bow on Dress -->
    <path d="M190 310 L210 310" stroke="#ff0000" stroke-width="4"/>
    <path d="M200 300 C208 305, 208 315, 200 320 C192 315, 192 305, 200 300" fill="#ff0000"/>
    
    <!-- Accessories -->
    <!-- Earrings -->
    <circle cx="130" cy="170" r="5" fill="#ff0000"/>
    <circle cx="270" cy="170" r="5" fill="#ff0000"/>
    
    <!-- Necklace -->
    <path d="M175 245 C190 255, 210 255, 225 245" stroke="#ff0000" stroke-width="2" fill="none"/>
    <circle cx="200" cy="250" r="4" fill="#ff0000"/>
  </g>
  
  <!-- Speech bubble and name removed -->
</svg>
