<svg xmlns="http://www.w3.org/2000/svg" viewBox="0 0 400 500">
  <!-- Background -->
  <rect width="400" height="500" fill="#f8f9fa"/>
  
  <!-- Basic Stick Figure -->
  <g id="character">
    <!-- Head -->
    <circle cx="200" cy="100" r="40" fill="none" stroke="#000000" stroke-width="3"/>
    
    <!-- Body -->
    <line x1="200" y1="140" x2="200" y2="300" stroke="#000000" stroke-width="3"/>
    
    <!-- Arms -->
    <line x1="200" y1="180" x2="150" y2="220" stroke="#000000" stroke-width="3"/>
    <line x1="200" y1="180" x2="250" y2="220" stroke="#000000" stroke-width="3"/>
    
    <!-- Legs -->
    <line x1="200" y1="300" x2="160" y2="400" stroke="#000000" stroke-width="3"/>
    <line x1="200" y1="300" x2="240" y2="400" stroke="#000000" stroke-width="3"/>
    
    <!-- Hair - with clearer ponytail -->
    <path d="M170 80 C180 60, 220 60, 230 80" stroke="#000000" stroke-width="3" fill="none"/>
    <path d="M230 80 C250 90, 260 120, 250 150 C240 180, 230 160, 240 130" stroke="#000000" stroke-width="3" fill="none"/>
    
    <!-- Glasses -->
    <circle cx="185" cy="100" r="12" fill="none" stroke="#000000" stroke-width="2"/>
    <circle cx="215" cy="100" r="12" fill="none" stroke="#000000" stroke-width="2"/>
    <line x1="197" y1="100" x2="203" y2="100" stroke="#000000" stroke-width="2"/>
    
    <!-- Eyes inside glasses -->
    <circle cx="185" cy="100" r="5" fill="#000000"/>
    <circle cx="215" cy="100" r="5" fill="#000000"/>
    
    <!-- Smile -->
    <path d="M185 115 C195 125, 205 125, 215 115" stroke="#000000" stroke-width="2" fill="none"/>
    
    <!-- Earrings - small dots -->
    <circle cx="160" cy="105" r="2" fill="#000000"/>
    <circle cx="240" cy="105" r="2" fill="#000000"/>
    
    <!-- Simple clothing indications -->
    <!-- Jacket outline -->
    <path d="M180 180 L170 300 L230 300 L220 180" stroke="#000000" stroke-width="2" fill="none"/>
    
    <!-- Book in hand -->
    <rect x="250" y="220" width="30" height="40" stroke="#000000" stroke-width="2" fill="none"/>
    <line x1="255" y1="230" x2="275" y2="230" stroke="#000000" stroke-width="1"/>
    <line x1="255" y1="240" x2="275" y2="240" stroke="#000000" stroke-width="1"/>
    <line x1="255" y1="250" x2="275" y2="250" stroke="#000000" stroke-width="1"/>
    
    <!-- McGill bag -->
    <path d="M130 230 L120 290 L150 290 L160 230" stroke="#000000" stroke-width="2" fill="none"/>
    <line x1="130" y1="230" x2="135" y2="215" stroke="#000000" stroke-width="2"/>
    <line x1="160" y1="230" x2="155" y2="215" stroke="#000000" stroke-width="2"/>
    <rect x="130" y="250" width="20" height="20" stroke="#000000" stroke-width="1" fill="none"/>
    <path d="M135 255 L145 255 L140 265 Z" stroke="#000000" stroke-width="1" fill="none"/>
  </g>
</svg>
