<svg xmlns="http://www.w3.org/2000/svg" viewBox="0 0 800 600">
  <!-- Background gradient in Gris style -->
  <defs>
    <linearGradient id="bgGradient" x1="0%" y1="0%" x2="0%" y2="100%">
      <stop offset="0%" stop-color="#f8e9dd" />
      <stop offset="100%" stop-color="#e6cbb5" />
    </linearGradient>
    
    <!-- Soft light from window -->
    <radialGradient id="windowLight" cx="75%" cy="35%" r="40%" fx="75%" fy="35%">
      <stop offset="0%" stop-color="#fffaf0" stop-opacity="0.4" />
      <stop offset="100%" stop-color="#fffaf0" stop-opacity="0" />
    </radialGradient>
    
    <!-- Wood texture for floor -->
    <pattern id="woodPattern" patternUnits="userSpaceOnUse" width="100" height="30">
      <rect width="100" height="30" fill="#d8b795" />
      <line x1="0" y1="0" x2="100" y2="0" stroke="#c49a76" stroke-width="0.5" />
      <line x1="0" y1="10" x2="100" y2="10" stroke="#c49a76" stroke-width="0.5" />
      <line x1="0" y1="20" x2="100" y2="20" stroke="#c49a76" stroke-width="0.5" />
      <line x1="0" y1="30" x2="100" y2="30" stroke="#c49a76" stroke-width="0.5" />
    </pattern>
  </defs>
  
  <!-- Main background -->
  <rect width="800" height="600" fill="url(#bgGradient)" />
  
  <!-- Window light -->
  <rect width="800" height="600" fill="url(#windowLight)" />
  
  <!-- Floor -->
  <rect x="0" y="450" width="800" height="150" fill="url(#woodPattern)" />
  
  <!-- Walls -->
  <rect x="0" y="0" width="800" height="450" fill="#e6cbb5" />
  
  <!-- Large windows with Montreal shutters -->
  <rect x="500" y="100" width="250" height="220" fill="#d8b795" stroke="#c49a76" stroke-width="3" />
  <line x1="625" y1="100" x2="625" y2="320" stroke="#c49a76" stroke-width="3" />
  <rect x="503" y="103" width="244" height="214" fill="#f8f0e6" opacity="0.6" />
  
  <!-- Window shutters -->
  <rect x="470" y="100" width="30" height="220" fill="#c49a76" />
  <rect x="750" y="100" width="30" height="220" fill="#c49a76" />
  <g opacity="0.8">
    <line x1="480" y1="120" x2="490" y2="120" stroke="#b78b68" stroke-width="1" />
    <line x1="480" y1="160" x2="490" y2="160" stroke="#b78b68" stroke-width="1" />
    <line x1="480" y1="200" x2="490" y2="200" stroke="#b78b68" stroke-width="1" />
    <line x1="480" y1="240" x2="490" y2="240" stroke="#b78b68" stroke-width="1" />
    <line x1="480" y1="280" x2="490" y2="280" stroke="#b78b68" stroke-width="1" />
    
    <line x1="760" y1="120" x2="770" y2="120" stroke="#b78b68" stroke-width="1" />
    <line x1="760" y1="160" x2="770" y2="160" stroke="#b78b68" stroke-width="1" />
    <line x1="760" y1="200" x2="770" y2="200" stroke="#b78b68" stroke-width="1" />
    <line x1="760" y1="240" x2="770" y2="240" stroke="#b78b68" stroke-width="1" />
    <line x1="760" y1="280" x2="770" y2="280" stroke="#b78b68" stroke-width="1" />
  </g>
  
  <!-- Trees visible through window -->
  <g transform="translate(550, 150)" opacity="0.4">
    <rect x="0" y="50" width="10" height="120" fill="#9c7c65" />
    <circle cx="5" cy="30" r="30" fill="#83624c" />
  </g>
  
  <g transform="translate(650, 180)" opacity="0.4">
    <rect x="0" y="40" width="8" height="100" fill="#9c7c65" />
    <circle cx="4" cy="25" r="25" fill="#83624c" />
  </g>
  
  <!-- French door to balcony -->
  <rect x="350" y="170" width="100" height="200" fill="#d8b795" stroke="#c49a76" stroke-width="3" />
  <line x1="400" y1="170" x2="400" y2="370" stroke="#c49a76" stroke-width="3" />
  <rect x="353" y="173" width="94" height="194" fill="#f8f0e6" opacity="0.6" />
  
  <!-- Door handle -->
  <circle cx="390" cy="270" r="5" fill="#b78b68" />
  
  <!-- Balcony visible through door -->
  <g transform="translate(350, 370)" opacity="0.7">
    <rect x="0" y="0" width="100" height="20" fill="#c49a76" />
    <line x1="10" y1="0" x2="10" y2="-40" stroke="#c49a76" stroke-width="2" />
    <line x1="30" y1="0" x2="30" y2="-40" stroke="#c49a76" stroke-width="2" />
    <line x1="50" y1="0" x2="50" y2="-40" stroke="#c49a76" stroke-width="2" />
    <line x1="70" y1="0" x2="70" y2="-40" stroke="#c49a76" stroke-width="2" />
    <line x1="90" y1="0" x2="90" y2="-40" stroke="#c49a76" stroke-width="2" />
    <line x1="0" y1="-40" x2="100" y2="-40" stroke="#c49a76" stroke-width="2" />
  </g>
  
  <!-- Hint of exterior spiral staircase -->
  <g transform="translate(300, 390)" opacity="0.6">
    <path d="M0,0 Q20,-20 40,0 Q60,-20 80,0" fill="none" stroke="#9c7c65" stroke-width="3" />
    <path d="M0,-30 Q20,-50 40,-30 Q60,-50 80,-30" fill="none" stroke="#9c7c65" stroke-width="3" />
    <path d="M0,-60 Q20,-80 40,-60 Q60,-80 80,-60" fill="none" stroke="#9c7c65" stroke-width="3" />
    <line x1="0" y1="0" x2="0" y2="-60" stroke="#9c7c65" stroke-width="2" />
    <line x1="80" y1="0" x2="80" y2="-60" stroke="#9c7c65" stroke-width="2" />
  </g>
  
  <!-- Futon couch -->
  <rect x="50" y="350" width="150" height="70" fill="#c49a76" />
  <rect x="55" y="330" width="140" height="20" fill="#c49a76" />
  <rect x="55" y="355" width="140" height="60" fill="#d8b795" />
  
  <!-- Fleur-de-lis throw pillow -->
  <rect x="160" y="340" width="30" height="30" rx="5" ry="5" fill="#9c7c65" />
  <path d="M175,345 L175,350 C170,360 165,355 175,365 C185,355 180,360 175,350 Z" fill="#d8b795" />
  <path d="M175,345 C170,340 165,350 175,350 C185,350 180,340 175,345 Z" fill="#d8b795" />
  
  <!-- Small dining table -->
  <g transform="translate(250, 350)">
    <rect x="0" y="0" width="80" height="60" fill="#c49a76" />
    <rect x="5" y="5" width="70" height="50" fill="#d8b795" />
    
    <!-- Table legs -->
    <rect x="10" y="60" width="5" height="40" fill="#c49a76" />
    <rect x="65" y="60" width="5" height="40" fill="#c49a76" />
    
    <!-- Chairs -->
    <rect x="-20" y="30" width="20" height="20" fill="#c49a76" />
    <rect x="80" y="30" width="20" height="20" fill="#c49a76" />
    
    <!-- Chair legs -->
    <rect x="-15" y="50" width="3" height="30" fill="#c49a76" />
    <rect x="-5" y="50" width="3" height="30" fill="#c49a76" />
    <rect x="85" y="50" width="3" height="30" fill="#c49a76" />
    <rect x="95" y="50" width="3" height="30" fill="#c49a76" />
    
    <!-- Items on table -->
    <circle cx="30" cy="30" r="10" fill="#e6cbb5" /> <!-- Plate -->
    <rect x="50" y="20" width="15" height="20" fill="#f8f0e6" /> <!-- Book -->
  </g>
  
  <!-- Study desk -->
  <g transform="translate(100, 170)">
    <rect x="0" y="0" width="120" height="60" fill="#c49a76" />
    <rect x="5" y="5" width="110" height="50" fill="#d8b795" />
    
    <!-- Desk legs -->
    <rect x="10" y="60" width="5" height="50" fill="#c49a76" />
    <rect x="105" y="60" width="5" height="50" fill="#c49a76" />
    
    <!-- Chair -->
    <rect x="40" y="65" width="40" height="5" fill="#c49a76" />
    <rect x="40" y="70" width="5" height="40" fill="#c49a76" />
    <rect x="75" y="70" width="5" height="40" fill="#c49a76" />
    <rect x="40" y="100" width="40" height="5" fill="#c49a76" />
    
    <!-- Laptop on desk -->
    <rect x="30" y="20" width="40" height="30" rx="2" ry="2" fill="#9c7c65" />
    <rect x="30" y="20" width="40" height="15" rx="2" ry="2" fill="#b78b68" />
    
    <!-- Books on desk -->
    <rect x="80" y="15" width="20" height="5" fill="#f8f0e6" />
    <rect x="80" y="20" width="20" height="5" fill="#e6cbb5" />
    <rect x="80" y="25" width="20" height="5" fill="#f8f0e6" />
    
    <!-- Desk lamp -->
    <rect x="10" y="0" width="5" height="25" fill="#9c7c65" />
    <path d="M10,0 Q15,-10 20,0" fill="none" stroke="#9c7c65" stroke-width="2" />
    <circle cx="20" cy="0" r="5" fill="#fffaf0" />
  </g>
  
  <!-- Kitchenette area -->
  <rect x="500" y="350" width="250" height="100" fill="#d8b795" stroke="#c49a76" stroke-width="2" />
  
  <!-- Counter -->
  <rect x="500" y="390" width="250" height="10" fill="#c49a76" />
  
  <!-- Sink -->
  <rect x="520" y="360" width="40" height="30" fill="#f8f0e6" stroke="#c49a76" stroke-width="1" />
  <circle cx="540" cy="375" r="5" fill="#c49a76" />
  
  <!-- Mini fridge -->
  <rect x="570" y="350" width="50" height="40" fill="#f8f0e6" stroke="#c49a76" stroke-width="1" />
  <rect x="590" y="365" width="10" height="2" fill="#c49a76" />
  
  <!-- Microwave -->
  <rect x="630" y="360" width="40" height="30" fill="#9c7c65" stroke="#c49a76" stroke-width="1" />
  <rect x="635" y="365" width="30" height="20" fill="#83624c" />
  <circle cx="655" cy="375" r="3" fill="#c49a76" />
  
  <!-- Hot plate -->
  <rect x="680" y="360" width="40" height="30" fill="#83624c" stroke="#c49a76" stroke-width="1" />
  <circle cx="695" cy="375" r="8" fill="#9c7c65" />
  <circle cx="695" cy="375" r="5" fill="#c49a76" />
  <circle cx="710" cy="375" r="8" fill="#9c7c65" />
  <circle cx="710" cy="375" r="5" fill="#c49a76" />
  
  <!-- Cabinets -->
  <rect x="500" y="400" width="250" height="50" fill="#c49a76" />
  <rect x="510" y="410" width="50" height="30" fill="#d8b795" stroke="#c49a76" stroke-width="1" />
  <rect x="570" y="410" width="50" height="30" fill="#d8b795" stroke="#c49a76" stroke-width="1" />
  <rect x="630" y="410" width="50" height="30" fill="#d8b795" stroke="#c49a76" stroke-width="1" />
  <rect x="690" y="410" width="50" height="30" fill="#d8b795" stroke="#c49a76" stroke-width="1" />
  
  <!-- Cabinet handles -->
  <rect x="530" y="425" width="10" height="2" fill="#9c7c65" />
  <rect x="590" y="425" width="10" height="2" fill="#9c7c65" />
  <rect x="650" y="425" width="10" height="2" fill="#9c7c65" />
  <rect x="710" y="425" width="10" height="2" fill="#9c7c65" />
  
  <!-- Map of Montreal neighborhoods -->
  <rect x="50" y="70" width="80" height="60" fill="#f8f0e6" stroke="#c49a76" stroke-width="2" />
  <g transform="translate(55, 75)" opacity="0.8">
    <path d="M0,25 C10,15 20,5 40,10 C60,15 70,25 70,50" fill="none" stroke="#83624c" stroke-width="1" />
    <path d="M20,20 C30,25 50,25 60,20" fill="none" stroke="#83624c" stroke-width="1" />
    <path d="M10,30 C20,35 40,35 50,30" fill="none" stroke="#83624c" stroke-width="1" />
    <path d="M30,40 C40,45 50,45 60,40" fill="none" stroke="#83624c" stroke-width="1" />
    <circle cx="35" cy="25" r="3" fill="#9c7c65" />
  </g>
  
  <!-- Small bookshelf -->
  <rect x="150" y="70" width="80" height="100" fill="#c49a76" />
  <rect x="155" y="75" width="70" height="90" fill="#d8b795" />
  
  <!-- Shelf dividers -->
  <rect x="155" y="105" width="70" height="2" fill="#c49a76" />
  <rect x="155" y="135" width="70" height="2" fill="#c49a76" />
  
  <!-- Books on shelves -->
  <g transform="translate(160, 80)">
    <rect x="0" y="0" width="10" height="20" fill="#f8f0e6" />
    <rect x="10" y="0" width="10" height="20" fill="#9c7c65" />
    <rect x="20" y="0" width="15" height="20" fill="#e6cbb5" />
    <rect x="35" y="0" width="5" height="20" fill="#83624c" />
    <rect x="40" y="0" width="12" height="20" fill="#f8f0e6" />
    <rect x="52" y="0" width="8" height="20" fill="#c49a76" />
  </g>
  
  <g transform="translate(160, 110)">
    <rect x="0" y="0" width="15" height="20" fill="#9c7c65" />
    <rect x="15" y="0" width="8" height="20" fill="#f8f0e6" />
    <rect x="23" y="0" width="12" height="20" fill="#c49a76" />
    <rect x="35" y="0" width="10" height="20" fill="#e6cbb5" />
    <rect x="45" y="0" width="15" height="20" fill="#83624c" />
  </g>
  
  <g transform="translate(160, 140)">
    <rect x="0" y="0" width="7" height="20" fill="#c49a76" />
    <rect x="7" y="0" width="13" height="20" fill="#f8f0e6" />
    <rect x="20" y="0" width="10" height="20" fill="#83624c" />
    <rect x="30" y="0" width="8" height="20" fill="#9c7c65" />
    <rect x="38" y="0" width="12" height="20" fill="#e6cbb5" />
    <rect x="50" y="0" width="10" height="20" fill="#f8f0e6" />
  </g>
  
  <!-- Plant -->
  <g transform="translate(400, 150)">
    <rect x="0" y="0" width="20" height="20" fill="#c49a76" />
    <path d="M10,0 C0,-15 -5,-5 10,-20 C25,-5 20,-15 10,0" fill="#83624c" />
  </g>
</svg>
